<?xml version="1.0" encoding="UTF-8"?>
<svg xmlns="http://www.w3.org/2000/svg" xmlns:xlink="http://www.w3.org/1999/xlink" width="330px" height="108px" viewBox="0 0 29 10" version="1.1">
<g id="surface1">
<path style=" stroke:none;fill-rule:nonzero;fill:rgb(51.764706%,71.764706%,25.098039%);fill-opacity:1;" d="M 0 5.753906 L 12.269531 5.753906 L 12.269531 9.972656 L 0 9.972656 Z M 0 5.753906 "/>
<path style=" stroke:none;fill-rule:nonzero;fill:rgb(14.509804%,60.784314%,83.921569%);fill-opacity:1;" d="M 0 0 L 12.269531 0 L 12.269531 4.222656 L 0 4.222656 Z M 0 0 "/>
<path style=" stroke:none;fill-rule:nonzero;fill:rgb(90%,90%,90%);fill-opacity:1;" d="M 24.539062 9.117188 L 24.484375 9.128906 C 24.296875 9.164062 24.226562 9.179688 24.089844 9.179688 C 23.769531 9.179688 23.390625 9.011719 23.390625 8.214844 C 23.390625 7.804688 23.453125 7.257812 24.050781 7.257812 L 24.054688 7.257812 C 24.15625 7.265625 24.273438 7.277344 24.492188 7.347656 L 24.539062 7.359375 Z M 24.640625 5.144531 L 24.539062 5.160156 L 24.539062 6.636719 L 24.453125 6.609375 L 24.429688 6.601562 C 24.328125 6.570312 24.105469 6.503906 23.886719 6.503906 C 22.691406 6.503906 22.4375 7.4375 22.4375 8.21875 C 22.4375 9.289062 23.019531 9.90625 24.039062 9.90625 C 24.46875 9.90625 24.785156 9.859375 25.105469 9.75 C 25.402344 9.652344 25.507812 9.515625 25.507812 9.21875 L 25.507812 4.988281 C 25.222656 5.042969 24.925781 5.09375 24.640625 5.144531 "/>
<path style=" stroke:none;fill-rule:nonzero;fill:rgb(90%,90%,90%);fill-opacity:1;" d="M 28.09375 9.144531 L 28.042969 9.15625 L 27.859375 9.207031 C 27.6875 9.25 27.535156 9.277344 27.417969 9.277344 C 27.136719 9.277344 26.972656 9.136719 26.972656 8.890625 C 26.972656 8.734375 27.039062 8.464844 27.5 8.464844 L 28.09375 8.464844 Z M 27.675781 6.484375 C 27.304688 6.484375 26.925781 6.550781 26.457031 6.703125 L 26.152344 6.796875 L 26.253906 7.511719 L 26.550781 7.410156 C 26.863281 7.304688 27.253906 7.238281 27.546875 7.238281 C 27.675781 7.238281 28.078125 7.238281 28.078125 7.683594 L 28.078125 7.878906 L 27.519531 7.878906 C 26.503906 7.878906 26.035156 8.214844 26.035156 8.933594 C 26.035156 9.546875 26.46875 9.914062 27.195312 9.914062 C 27.421875 9.914062 27.734375 9.867188 28.003906 9.800781 L 28.019531 9.796875 L 28.035156 9.800781 L 28.125 9.816406 C 28.410156 9.867188 28.703125 9.921875 28.992188 9.976562 L 28.992188 7.632812 C 28.992188 6.871094 28.546875 6.484375 27.675781 6.484375 "/>
<path style=" stroke:none;fill-rule:nonzero;fill:rgb(90%,90%,90%);fill-opacity:1;" d="M 21.015625 9.144531 L 20.964844 9.15625 L 20.78125 9.207031 C 20.609375 9.25 20.460938 9.277344 20.339844 9.277344 C 20.058594 9.277344 19.890625 9.136719 19.890625 8.890625 C 19.890625 8.734375 19.960938 8.464844 20.417969 8.464844 L 21.011719 8.464844 Z M 20.597656 6.484375 C 20.226562 6.484375 19.851562 6.550781 19.382812 6.703125 L 19.074219 6.796875 L 19.179688 7.511719 L 19.476562 7.410156 C 19.789062 7.304688 20.179688 7.238281 20.472656 7.238281 C 20.601562 7.238281 21.003906 7.238281 21.003906 7.683594 L 21.003906 7.878906 L 20.445312 7.878906 C 19.429688 7.878906 18.957031 8.214844 18.957031 8.933594 C 18.957031 9.546875 19.390625 9.914062 20.121094 9.914062 C 20.347656 9.914062 20.660156 9.867188 20.929688 9.800781 L 20.945312 9.796875 L 20.960938 9.800781 L 21.046875 9.816406 C 21.335938 9.867188 21.625 9.921875 21.914062 9.980469 L 21.914062 7.636719 C 21.917969 6.867188 21.472656 6.484375 20.597656 6.484375 "/>
<path style=" stroke:none;fill-rule:nonzero;fill:rgb(90%,90%,90%);fill-opacity:1;" d="M 17.179688 6.492188 C 16.714844 6.492188 16.332031 6.648438 16.191406 6.71875 L 16.152344 6.738281 L 16.121094 6.710938 C 15.925781 6.5625 15.636719 6.488281 15.234375 6.488281 C 14.882812 6.488281 14.550781 6.542969 14.191406 6.648438 C 13.878906 6.75 13.761719 6.902344 13.761719 7.191406 L 13.761719 9.871094 L 14.730469 9.871094 L 14.730469 7.394531 L 14.777344 7.378906 C 14.972656 7.3125 15.089844 7.300781 15.203125 7.300781 C 15.484375 7.300781 15.625 7.453125 15.625 7.753906 L 15.625 9.875 L 16.582031 9.875 L 16.582031 7.714844 C 16.582031 7.585938 16.554688 7.511719 16.550781 7.496094 L 16.519531 7.433594 L 16.582031 7.402344 C 16.730469 7.335938 16.890625 7.300781 17.058594 7.300781 C 17.25 7.300781 17.480469 7.378906 17.480469 7.753906 L 17.480469 9.875 L 18.429688 9.875 L 18.429688 7.65625 C 18.429688 6.871094 18.023438 6.492188 17.179688 6.492188 "/>
<path style=" stroke:none;fill-rule:nonzero;fill:rgb(90%,90%,90%);fill-opacity:1;" d="M 27.378906 2.75 C 27.238281 2.75 27 2.738281 26.8125 2.699219 L 26.757812 2.6875 L 26.757812 1.242188 C 26.757812 1.121094 26.738281 1.046875 26.734375 1.035156 L 26.703125 0.972656 L 26.765625 0.949219 C 26.78125 0.941406 26.796875 0.9375 26.8125 0.929688 L 26.824219 0.921875 C 26.847656 0.914062 26.867188 0.90625 26.890625 0.898438 C 26.902344 0.894531 26.910156 0.890625 26.917969 0.890625 C 27.132812 0.832031 27.328125 0.839844 27.414062 0.832031 L 27.417969 0.832031 C 28.011719 0.832031 28.082031 1.375 28.082031 1.785156 C 28.078125 2.582031 27.695312 2.75 27.378906 2.75 M 27.375 0 C 27.367188 0 27.355469 0 27.351562 0 C 26.792969 0 26.21875 0.15625 26.015625 0.464844 C 25.90625 0.617188 25.84375 0.804688 25.839844 1.027344 L 25.839844 2.519531 C 25.839844 2.648438 25.816406 2.695312 25.8125 2.707031 L 25.78125 2.769531 L 24.019531 2.769531 L 24.019531 1.734375 L 24.015625 1.734375 C 23.996094 0.640625 23.367188 0.0390625 22.460938 0.0390625 L 21.574219 0.0390625 C 21.539062 0.304688 21.507812 0.492188 21.472656 0.757812 L 22.355469 0.757812 C 22.816406 0.757812 23.0625 1.164062 23.0625 1.789062 L 23.0625 2.835938 L 23 2.800781 C 22.988281 2.796875 22.914062 2.769531 22.792969 2.769531 L 21.269531 2.769531 C 21.238281 2.96875 21.203125 3.230469 21.164062 3.488281 L 25.84375 3.488281 C 26.003906 3.453125 26.191406 3.425781 26.351562 3.398438 C 26.589844 3.519531 27.027344 3.582031 27.332031 3.582031 C 28.347656 3.582031 29.007812 2.878906 29.007812 1.796875 C 29.003906 0.726562 28.367188 0.0234375 27.375 0 "/>
<path style=" stroke:none;fill-rule:nonzero;fill:rgb(90%,90%,90%);fill-opacity:1;" d="M 19.167969 3.929688 L 19.210938 3.929688 C 20.226562 3.929688 20.699219 3.582031 20.699219 2.730469 C 20.699219 2.117188 20.265625 1.628906 19.539062 1.628906 L 18.601562 1.628906 C 18.320312 1.628906 18.152344 1.460938 18.152344 1.183594 C 18.152344 0.996094 18.222656 0.761719 18.683594 0.761719 L 20.730469 0.761719 C 20.773438 0.488281 20.796875 0.316406 20.835938 0.0429688 L 18.707031 0.0429688 C 17.71875 0.0429688 17.21875 0.46875 17.21875 1.183594 C 17.21875 1.890625 17.652344 2.257812 18.378906 2.257812 L 19.316406 2.257812 C 19.597656 2.257812 19.765625 2.488281 19.765625 2.730469 C 19.765625 2.886719 19.695312 3.214844 19.238281 3.214844 L 19.082031 3.214844 L 16.085938 3.207031 L 15.539062 3.207031 C 15.074219 3.207031 14.75 2.9375 14.75 2.308594 L 14.75 1.875 C 14.75 1.222656 15.003906 0.816406 15.539062 0.816406 L 16.425781 0.816406 C 16.46875 0.539062 16.492188 0.359375 16.527344 0.0976562 L 15.316406 0.0976562 C 14.410156 0.0976562 13.78125 0.726562 13.761719 1.820312 L 13.761719 2.308594 C 13.78125 3.402344 14.410156 3.925781 15.316406 3.925781 L 16.203125 3.925781 L 17.828125 3.929688 Z M 19.167969 3.929688 "/>
</g>
</svg>
