<?xml version="1.0" encoding="utf-8"?>
<!-- Generator: Adobe Illustrator 24.0.1, SVG Export Plug-In . SVG Version: 6.00 Build 0)  -->
<svg version="1.1" id="Layer_2_1_" xmlns="http://www.w3.org/2000/svg" xmlns:xlink="http://www.w3.org/1999/xlink" x="0px" y="0px"
	 viewBox="0 0 761 130.5" style="enable-background:new 0 0 761 130.5;" xml:space="preserve">
<style type="text/css">
	.st0{fill:#0069B1;}
	.st1{fill:#E12E56;}
</style>
<g>
	<g>
		<path class="st0" d="M194.8,78.2c0,1.2,0,2.2,0,3.2c0,1.2,0,2.2-0.1,3.2h-77.6c0.1,4.1,1,7.9,2.8,11.6c1.8,3.7,4,6.7,6.9,9.4
			c2.9,2.6,6.2,4.7,10,6.3c3.8,1.5,7.8,2.2,12,2.2c6.6,0,12.3-1.5,17.2-4.3c4.8-2.9,8.5-6.5,11.3-10.6l13.6,10.9
			c-5.3,6.9-11.3,12-18.5,15.3c-7,3.2-15,4.8-23.6,4.8c-7.5,0-14.2-1.2-20.5-3.7s-11.7-5.9-16.3-10.4c-4.5-4.4-8.1-9.8-10.7-16.1
			s-4-13.3-4-21c0-7.5,1.3-14.5,3.8-21s6.2-11.9,10.6-16.4c4.5-4.5,10-8.1,16.1-10.6c6.2-2.5,12.9-3.8,19.9-3.8
			c7.2,0,13.6,1.2,19.5,3.5s10.9,5.7,14.8,10.1c4.1,4.4,7.2,9.7,9.4,16C193.8,63.4,194.8,70.4,194.8,78.2z M175.1,70.4
			c-0.1-3.8-0.7-7.5-1.9-10.9s-2.9-6.3-5.1-8.8s-5.1-4.4-8.5-5.9s-7.3-2.2-11.9-2.2c-4.1,0-8.1,0.7-11.6,2.2
			c-3.7,1.5-6.7,3.4-9.5,5.9c-2.6,2.5-4.8,5.4-6.6,8.8c-1.8,3.4-2.8,7-2.9,10.9H175.1z"/>
		<polygon class="st0" points="390.3,30.2 368.2,105.5 344.3,30.2 323.9,30.2 300.4,105.5 278.1,30.2 257.1,30.2 289.7,127.9 
			309.8,127.9 333.7,54.6 334.1,54.6 358.2,127.9 378.4,127.9 410.7,30.2 		"/>
		<path class="st0" d="M514.1,78.8c0,7.6-1.3,14.5-4,20.8c-2.6,6.3-6.5,11.7-11.1,16.4c-4.7,4.5-10.3,8.2-16.7,10.7
			c-6.5,2.5-13.3,3.8-20.8,3.8s-14.4-1.3-20.8-3.8c-6.5-2.5-12-6.2-16.7-10.7s-8.4-10.1-11-16.4c-2.6-6.3-4-13.2-4-20.8
			c0-7.5,1.3-14.5,4-20.7c2.6-6.3,6.3-11.6,11-16.1s10.3-8.1,16.7-10.6c6.5-2.5,13.3-3.8,20.8-3.8s14.4,1.3,20.8,3.8
			c6.5,2.5,12,6,16.7,10.6c4.7,4.6,8.5,10,11.1,16.1C512.8,64.4,514.1,71.3,514.1,78.8z M493.9,78.9c0-4.7-0.7-9.1-2.2-13.3
			c-1.5-4.3-3.5-7.9-6.3-11.1c-2.8-3.2-6.2-5.7-10.3-7.8c-4.1-1.9-8.7-2.9-13.9-2.9c-5.3,0-9.8,1-13.9,2.9s-7.5,4.5-10.3,7.8
			s-4.8,6.9-6.3,11.1c-1.5,4.3-2.2,8.7-2.2,13.3c0,4.7,0.7,9.1,2.2,13.3s3.5,8.1,6.3,11.3s6.2,5.9,10.3,7.8
			c4.1,1.9,8.7,2.9,13.9,2.9c5.3,0,9.8-1,13.9-2.9s7.5-4.5,10.3-7.8c2.8-3.2,4.8-7,6.3-11.3C493.3,88,493.9,83.6,493.9,78.9z"/>
		<rect x="588.6" class="st0" width="19.4" height="127.9"/>
		<path class="st0" d="M249.4,45V30.2H225V0h-19.2v99c0,10.1,2.5,17.7,7.3,22.9c4.8,5.1,11.9,7.6,21.1,7.6c3.1,0,5.9-0.3,8.8-0.7
			c2.3-0.4,4.4-0.9,6.3-1.6v-16c-1.5,0.6-3.1,1-4.8,1.5c-2.1,0.4-4,0.6-5.7,0.6c-4.8,0-8.4-1.3-10.6-3.8s-3.2-6.7-3.2-12.6V45.1
			L249.4,45L249.4,45z"/>
		<path class="st0" d="M572.2,27.6c-6.6,0-12.5,1.8-17.7,5.3c-5.3,3.5-10,8.1-12.6,13.9V30.2h-18.3v97.7H543V76.6
			c0-4.1,0.6-8.1,1.6-11.9c1-3.8,2.8-7,5-10c2.2-2.9,5.1-5.1,8.5-6.9c3.4-1.8,7.5-2.6,12.2-2.6c3.1,0,6,0.3,8.8,1v-18
			C577.1,27.7,574.9,27.6,572.2,27.6z"/>
		<path class="st0" d="M84.9,51.8c-1.5-4.8-3.7-8.9-6.7-12.6c-3.1-3.5-6.7-6.5-11.3-8.5c-4.5-2.1-10-3.2-16.3-3.2
			c-3.5,0-7,0.4-10.3,1.5c-3.2,1-6.3,2.3-9.1,4c-2.8,1.8-5.1,3.7-7.3,6c-2.2,2.2-4.4,4.7-5.7,7.3l0,0v-16H0V128l0,0h19.4l0,0V76.1
			c0-9.7,2.5-17.6,7.3-23.3c4.8-5.9,11.1-8.8,18.8-8.8c4.5,0,8.2,0.9,11.1,2.5c2.9,1.6,5.1,3.8,6.7,6.6s2.8,5.9,3.4,9.5
			c0.6,3.5,0.9,7.3,0.9,11.3V128h19.5V67.4C87.1,61.8,86.4,56.6,84.9,51.8z"/>
		<polygon class="st0" points="649.2,30.2 673.1,30.2 631.9,79.4 672.5,127.9 648.6,127.9 608,79.4 		"/>
	</g>
	<polygon class="st1" points="719.8,30.2 695.9,30.2 737.1,79.4 696.5,127.9 720.4,127.9 761,79.4 	"/>
</g>
</svg>
