<?xml version="1.0" encoding="UTF-8"?>
<!DOCTYPE svg PUBLIC "-//W3C//DTD SVG 1.1//EN" "http://www.w3.org/Graphics/SVG/1.1/DTD/svg11.dtd">
<svg xmlns="http://www.w3.org/2000/svg" version="1.1" width="30px" height="28px" style="shape-rendering:geometricPrecision; text-rendering:geometricPrecision; image-rendering:optimizeQuality; fill-rule:evenodd; clip-rule:evenodd" xmlns:xlink="http://www.w3.org/1999/xlink">
<g><path style="opacity:1" fill="#fefdfc" d="M -0.5,-0.5 C 9.5,-0.5 19.5,-0.5 29.5,-0.5C 29.5,8.83333 29.5,18.1667 29.5,27.5C 19.5,27.5 9.5,27.5 -0.5,27.5C -0.5,18.1667 -0.5,8.83333 -0.5,-0.5 Z"/></g>
<g><path style="opacity:1" fill="#fdfaf2" d="M 19.5,8.5 C 15.3601,9.0443 14.6935,8.0443 17.5,5.5C 17.7828,4.71087 18.2828,4.0442 19,3.5C 19.4935,5.13414 19.6602,6.80081 19.5,8.5 Z"/></g>
<g><path style="opacity:1" fill="#eace7c" d="M 16.5,3.5 C 16.3284,4.49162 16.6618,5.15829 17.5,5.5C 14.6935,8.0443 15.3601,9.0443 19.5,8.5C 17.6112,9.74156 15.6112,9.74156 13.5,8.5C 14.1103,6.56594 15.1103,4.89928 16.5,3.5 Z"/></g>
<g><path style="opacity:1" fill="#f4e8c9" d="M 21.5,2.5 C 22.4614,4.26465 22.7947,6.26465 22.5,8.5C 23.9778,8.23798 25.3112,8.57131 26.5,9.5C 25.6798,11.1112 24.3464,11.7778 22.5,11.5C 22.8168,15.7016 22.4834,19.7016 21.5,23.5C 21.5,20.1667 21.5,16.8333 21.5,13.5C 21.5,12.5 21.5,11.5 21.5,10.5C 25.5,10.1667 25.5,9.83333 21.5,9.5C 21.5,7.16667 21.5,4.83333 21.5,2.5 Z"/></g>
<g><path style="opacity:1" fill="#dcb54b" d="M 21.5,2.5 C 21.5,4.83333 21.5,7.16667 21.5,9.5C 25.5,9.83333 25.5,10.1667 21.5,10.5C 15.8236,10.3339 10.1569,10.5006 4.5,11C 5.0442,11.7172 5.71087,12.2172 6.5,12.5C 6.5,13.1667 6.83333,13.5 7.5,13.5C 8.29049,14.4013 9.29049,15.0679 10.5,15.5C 13.1216,17.7819 15.7883,20.1152 18.5,22.5C 19.4656,20.604 19.7989,18.604 19.5,16.5C 20.1667,15.5 20.8333,14.5 21.5,13.5C 21.5,16.8333 21.5,20.1667 21.5,23.5C 21.189,24.4778 20.5223,25.1445 19.5,25.5C 16.2889,23.3996 13.2889,21.0663 10.5,18.5C 9.07363,17.6588 7.74029,16.6588 6.5,15.5C 3.81731,14.3305 2.65064,12.3305 3,9.5C 6.39364,8.54416 9.89364,8.21083 13.5,8.5C 15.6112,9.74156 17.6112,9.74156 19.5,8.5C 19.6602,6.80081 19.4935,5.13414 19,3.5C 18.2828,4.0442 17.7828,4.71087 17.5,5.5C 16.6618,5.15829 16.3284,4.49162 16.5,3.5C 17.8767,0.274244 19.5434,-0.0590892 21.5,2.5 Z"/></g>
<g><path style="opacity:1" fill="#fdfaf2" d="M 7.5,13.5 C 6.83333,13.5 6.5,13.1667 6.5,12.5C 7.60093,11.4017 8.93426,11.235 10.5,12C 9.75618,13.0386 8.75618,13.5386 7.5,13.5 Z"/></g>
<g><path style="opacity:1" fill="#e5cc86" d="M 21.5,10.5 C 21.5,11.5 21.5,12.5 21.5,13.5C 20.8333,14.5 20.1667,15.5 19.5,16.5C 19.5,14.8333 19.5,13.1667 19.5,11.5C 15.4523,10.8294 12.4523,12.1627 10.5,15.5C 9.29049,15.0679 8.29049,14.4013 7.5,13.5C 8.75618,13.5386 9.75618,13.0386 10.5,12C 8.93426,11.235 7.60093,11.4017 6.5,12.5C 5.71087,12.2172 5.0442,11.7172 4.5,11C 10.1569,10.5006 15.8236,10.3339 21.5,10.5 Z"/></g>
<g><path style="opacity:1" fill="#fdfbf5" d="M 19.5,16.5 C 19.7989,18.604 19.4656,20.604 18.5,22.5C 15.7883,20.1152 13.1216,17.7819 10.5,15.5C 12.4523,12.1627 15.4523,10.8294 19.5,11.5C 19.5,13.1667 19.5,14.8333 19.5,16.5 Z"/></g>
<g><path style="opacity:1" fill="#e1cba3" d="M 6.5,15.5 C 7.74029,16.6588 9.07363,17.6588 10.5,18.5C 8.09013,18.9209 6.2568,20.2542 5,22.5C 5.14038,20.1489 5.64038,17.8155 6.5,15.5 Z"/></g>
</svg>
